<svg width="558" height="558" viewBox="0 0 558 558" fill="none" xmlns="http://www.w3.org/2000/svg">
<path d="M227.952 426.111C240.398 424.647 250.526 415.861 258.335 399.755C266.388 383.405 274.075 356.439 281.396 318.857L316.903 134H396.337L360.83 318.857C351.8 366.688 339.843 399.999 324.957 418.79C317.147 428.551 308.24 435.384 298.235 439.289C288.473 443.193 278.224 445.146 267.486 445.146C256.749 445.146 247.963 443.193 241.13 439.289C234.053 435.384 229.661 430.992 227.952 426.111Z" fill="black"/>
<path d="M112 426.111C124.446 424.647 134.573 415.861 142.382 399.755C150.436 383.405 158.123 356.439 165.444 318.857L200.951 134H280.385L244.878 318.857C235.848 366.688 223.89 399.999 209.004 418.79C201.195 428.551 192.288 435.384 182.282 439.289C172.521 443.193 162.271 445.146 151.534 445.146C140.796 445.146 132.011 443.193 125.178 439.289C118.101 435.384 113.708 430.992 112 426.111Z" fill="black"/>
<path d="M446.521 406.826C446.521 428.086 429.287 445.32 408.027 445.32C386.768 445.32 369.534 428.086 369.534 406.826C369.534 385.567 386.768 368.333 408.027 368.333C429.287 368.333 446.521 385.567 446.521 406.826Z" fill="#FFB400"/>
</svg>
